# xmcd
#
# Track frame offsets: 
#        150
#        17608
#        32059
#        57247
#        76711
#        97501
#        116350
#        135621
#        151365
#        165358
#        187731
#        200707
#        221711
#
# Disc length: 3155 seconds
#
# Revision: 0
# Processed by: cddbd v1.5.2PL0 Copyright (c) Steve Scherf et al.
# Submitted via: ExactAudioCopy v1.3
#
DISCID=960c510d
DTITLE=Dwight Yoakam - Second Hand Heart
DYEAR=2015
DGENRE=Country
TTITLE0=In Another World
TTITLE1=She
TTITLE2=Dreams Of Clay
TTITLE3=Second Hand Heart
TTITLE4=Off Your Mind
TTITLE5=Believe
TTITLE6=Man Of Constant Sorrow
TTITLE7=Liar
TTITLE8=The Big Time
TTITLE9=V's Of Birds
TTITLE10=The Big Time (Demo Version) 1989
TTITLE11=Who'll Stop The Rain
TTITLE12=Nothing But Love
EXTD=
EXTT0=
EXTT1=
EXTT2=
EXTT3=
EXTT4=
EXTT5=
EXTT6=
EXTT7=
EXTT8=
EXTT9=
EXTT10=
EXTT11=
EXTT12=
PLAYORDER=
